<svg width="107" height="31" viewBox="0 0 107 31" fill="none" xmlns="http://www.w3.org/2000/svg">
<path d="M0.0507812 28V6.8623H2.6875V16.0029H14.2891V6.8623H16.9258V28H14.2891V18.376H2.6875V28H0.0507812ZM26.9014 28.293C25.4463 28.293 24.1914 27.9707 23.1367 27.3262C22.0918 26.6816 21.2861 25.7734 20.7197 24.6016C20.1631 23.4199 19.8848 22.0332 19.8848 20.4414V20.4268C19.8848 18.8545 20.168 17.4727 20.7344 16.2812C21.3008 15.0801 22.0967 14.1475 23.1221 13.4834C24.1475 12.8096 25.3535 12.4727 26.7402 12.4727C28.127 12.4727 29.3184 12.7949 30.3145 13.4395C31.3203 14.0742 32.0918 14.9678 32.6289 16.1201C33.166 17.2725 33.4346 18.6104 33.4346 20.1338V21.0713H21.1592V19.0791H32.1748L30.8857 20.9248V19.9434C30.8857 18.7617 30.7051 17.7852 30.3438 17.0137C29.9922 16.2422 29.5039 15.6709 28.8789 15.2998C28.2539 14.9189 27.5361 14.7285 26.7256 14.7285C25.915 14.7285 25.1875 14.9287 24.543 15.3291C23.8984 15.7197 23.3906 16.3057 23.0195 17.0869C22.6484 17.8584 22.4629 18.8105 22.4629 19.9434V20.9248C22.4629 21.999 22.6436 22.917 23.0049 23.6787C23.376 24.4404 23.8984 25.0264 24.5723 25.4365C25.2461 25.8369 26.042 26.0371 26.96 26.0371C27.6045 26.0371 28.1807 25.9395 28.6885 25.7441C29.1963 25.5488 29.6211 25.2803 29.9629 24.9385C30.3047 24.5967 30.5488 24.2061 30.6953 23.7666L30.7393 23.6348H33.2441L33.2148 23.7812C33.0879 24.4062 32.8438 24.9922 32.4824 25.5391C32.1309 26.0859 31.6768 26.5693 31.1201 26.9893C30.5635 27.3994 29.9287 27.7217 29.2158 27.9561C28.5029 28.1807 27.7314 28.293 26.9014 28.293ZM36.1445 28V6.8623H38.6934V28H36.1445ZM42.2676 28V6.8623H44.8164V28H42.2676ZM54.5723 28.293C53.166 28.293 51.9307 27.9707 50.8662 27.3262C49.8115 26.6816 48.9863 25.7686 48.3906 24.5869C47.8047 23.3955 47.5117 21.9941 47.5117 20.3828V20.3535C47.5117 18.7324 47.8047 17.3359 48.3906 16.1641C48.9863 14.9824 49.8115 14.0742 50.8662 13.4395C51.9307 12.7949 53.1611 12.4727 54.5576 12.4727C55.9639 12.4727 57.1943 12.7949 58.249 13.4395C59.3135 14.0742 60.1387 14.9824 60.7246 16.1641C61.3203 17.3359 61.6182 18.7324 61.6182 20.3535V20.3828C61.6182 22.0039 61.3203 23.4053 60.7246 24.5869C60.1387 25.7686 59.3184 26.6816 58.2637 27.3262C57.209 27.9707 55.9785 28.293 54.5723 28.293ZM54.5869 26.0371C55.4854 26.0371 56.2617 25.8174 56.916 25.3779C57.5801 24.9287 58.0928 24.2842 58.4541 23.4443C58.8252 22.5947 59.0107 21.5742 59.0107 20.3828V20.3535C59.0107 19.1621 58.8252 18.1465 58.4541 17.3066C58.0928 16.4668 57.5752 15.8271 56.9014 15.3877C56.2373 14.9482 55.4561 14.7285 54.5576 14.7285C53.6787 14.7285 52.9023 14.9531 52.2285 15.4023C51.5645 15.8418 51.0469 16.4814 50.6758 17.3213C50.3047 18.1514 50.1191 19.1621 50.1191 20.3535V20.3828C50.1191 21.5742 50.3047 22.5947 50.6758 23.4443C51.0469 24.2842 51.5645 24.9287 52.2285 25.3779C52.9023 25.8174 53.6885 26.0371 54.5869 26.0371ZM65.3975 20.9834L65.2217 6.8623H67.8584L67.6826 20.9834H65.3975ZM66.54 28.1465C66.0713 28.1465 65.6758 27.9854 65.3535 27.6631C65.0312 27.3408 64.8701 26.9453 64.8701 26.4766C64.8701 25.998 65.0312 25.6025 65.3535 25.29C65.6758 24.9678 66.0713 24.8066 66.54 24.8066C67.0186 24.8066 67.4141 24.9678 67.7266 25.29C68.0488 25.6025 68.21 25.998 68.21 26.4766C68.21 26.9453 68.0488 27.3408 67.7266 27.6631C67.4141 27.9854 67.0186 28.1465 66.54 28.1465ZM76.6914 30.1H106.691V0.0999998H76.6914V30.1Z" fill="black"/>
</svg>
